<svg xmlns="http://www.w3.org/2000/svg" viewBox="0 0 64 64">
  <defs>
    <linearGradient id="tomato" x1="10" y1="12" x2="53" y2="56" gradientUnits="userSpaceOnUse">
      <stop stop-color="#ff7a65"/>
      <stop offset="1" stop-color="#d94231"/>
    </linearGradient>
  </defs>
  <rect width="64" height="64" rx="16" fill="#fff3ed"/>
  <path d="M31 18c-12 0-21 8-21 19 0 12 9 19 22 19s22-7 22-19c0-11-10-19-23-19Z" fill="url(#tomato)"/>
  <path d="M32 20c-5-5-10-5-13-4 3 2 5 4 5 7-4 0-7 2-9 5 6-1 10 0 13 3 1-4 3-7 7-10 0 3 1 5 3 7 2-4 5-6 9-7-5-4-10-5-15-1Z" fill="#338765"/>
  <path d="M28 12c1 3 2 6 1 10" fill="none" stroke="#246c50" stroke-linecap="round" stroke-width="4"/>
  <circle cx="24" cy="37" r="2" fill="#fff" opacity=".7"/>
</svg>
